<mxfile host="app.diagrams.net" modified="2023-10-22T06:59:29.887Z" agent="Mozilla/5.0 (Windows NT 10.0; Win64; x64) AppleWebKit/537.36 (KHTML, like Gecko) Chrome/117.0.0.0 Safari/537.36" etag="X2NLnFtR4Jh7Qyi4qfRm" version="22.0.6" type="github">
  <diagram name="第 1 页" id="FKHGSuGCOnbcyCosDWrF">
    <mxGraphModel dx="1534" dy="1017" grid="0" gridSize="10" guides="1" tooltips="1" connect="1" arrows="1" fold="1" page="0" pageScale="1" pageWidth="827" pageHeight="1169" math="0" shadow="0">
      <root>
        <mxCell id="0" />
        <mxCell id="1" parent="0" />
        <mxCell id="AfXP875CaXnzclMjdYe_-35" value="" style="rounded=1;whiteSpace=wrap;html=1;fillColor=#fff2cc;strokeColor=#d6b656;" vertex="1" parent="1">
          <mxGeometry x="600" y="245" width="110" height="140" as="geometry" />
        </mxCell>
        <mxCell id="AfXP875CaXnzclMjdYe_-34" value="" style="rounded=1;whiteSpace=wrap;html=1;fillColor=#fff2cc;strokeColor=#d6b656;" vertex="1" parent="1">
          <mxGeometry x="60" y="80" width="110" height="140" as="geometry" />
        </mxCell>
        <mxCell id="AfXP875CaXnzclMjdYe_-1" value="" style="ellipse;whiteSpace=wrap;html=1;aspect=fixed;fillColor=#f8cecc;strokeColor=#b85450;" vertex="1" parent="1">
          <mxGeometry x="180" y="-30" width="430" height="430" as="geometry" />
        </mxCell>
        <mxCell id="AfXP875CaXnzclMjdYe_-19" style="edgeStyle=orthogonalEdgeStyle;orthogonalLoop=1;jettySize=auto;html=1;entryX=0;entryY=1;entryDx=0;entryDy=0;startArrow=classic;startFill=1;curved=1;" edge="1" parent="1" source="AfXP875CaXnzclMjdYe_-2" target="AfXP875CaXnzclMjdYe_-3">
          <mxGeometry relative="1" as="geometry" />
        </mxCell>
        <mxCell id="AfXP875CaXnzclMjdYe_-2" value="" style="shape=sumEllipse;perimeter=ellipsePerimeter;whiteSpace=wrap;html=1;backgroundOutline=1;" vertex="1" parent="1">
          <mxGeometry x="190" y="130" width="30" height="30" as="geometry" />
        </mxCell>
        <mxCell id="AfXP875CaXnzclMjdYe_-20" style="edgeStyle=orthogonalEdgeStyle;orthogonalLoop=1;jettySize=auto;html=1;entryX=0;entryY=0.5;entryDx=0;entryDy=0;startArrow=classic;startFill=1;curved=1;" edge="1" parent="1" source="AfXP875CaXnzclMjdYe_-3" target="AfXP875CaXnzclMjdYe_-11">
          <mxGeometry relative="1" as="geometry" />
        </mxCell>
        <mxCell id="AfXP875CaXnzclMjdYe_-3" value="" style="shape=sumEllipse;perimeter=ellipsePerimeter;whiteSpace=wrap;html=1;backgroundOutline=1;" vertex="1" parent="1">
          <mxGeometry x="300" y="100" width="30" height="30" as="geometry" />
        </mxCell>
        <mxCell id="AfXP875CaXnzclMjdYe_-27" style="edgeStyle=orthogonalEdgeStyle;orthogonalLoop=1;jettySize=auto;html=1;entryX=0.5;entryY=0;entryDx=0;entryDy=0;startArrow=classic;startFill=1;curved=1;" edge="1" parent="1" source="AfXP875CaXnzclMjdYe_-5" target="AfXP875CaXnzclMjdYe_-6">
          <mxGeometry relative="1" as="geometry" />
        </mxCell>
        <mxCell id="AfXP875CaXnzclMjdYe_-5" value="" style="shape=sumEllipse;perimeter=ellipsePerimeter;whiteSpace=wrap;html=1;backgroundOutline=1;" vertex="1" parent="1">
          <mxGeometry x="470" y="220" width="30" height="30" as="geometry" />
        </mxCell>
        <mxCell id="AfXP875CaXnzclMjdYe_-6" value="" style="shape=sumEllipse;perimeter=ellipsePerimeter;whiteSpace=wrap;html=1;backgroundOutline=1;" vertex="1" parent="1">
          <mxGeometry x="530" y="300" width="30" height="30" as="geometry" />
        </mxCell>
        <mxCell id="AfXP875CaXnzclMjdYe_-25" style="edgeStyle=orthogonalEdgeStyle;orthogonalLoop=1;jettySize=auto;html=1;entryX=0.5;entryY=0;entryDx=0;entryDy=0;curved=1;startArrow=classic;startFill=1;" edge="1" parent="1" source="AfXP875CaXnzclMjdYe_-10" target="AfXP875CaXnzclMjdYe_-5">
          <mxGeometry relative="1" as="geometry" />
        </mxCell>
        <mxCell id="AfXP875CaXnzclMjdYe_-10" value="" style="shape=sumEllipse;perimeter=ellipsePerimeter;whiteSpace=wrap;html=1;backgroundOutline=1;" vertex="1" parent="1">
          <mxGeometry x="490" y="140" width="30" height="30" as="geometry" />
        </mxCell>
        <mxCell id="AfXP875CaXnzclMjdYe_-23" style="edgeStyle=orthogonalEdgeStyle;orthogonalLoop=1;jettySize=auto;html=1;entryX=0;entryY=0.5;entryDx=0;entryDy=0;curved=1;startArrow=classic;startFill=1;" edge="1" parent="1" source="AfXP875CaXnzclMjdYe_-11" target="AfXP875CaXnzclMjdYe_-10">
          <mxGeometry relative="1" as="geometry" />
        </mxCell>
        <mxCell id="AfXP875CaXnzclMjdYe_-11" value="" style="shape=sumEllipse;perimeter=ellipsePerimeter;whiteSpace=wrap;html=1;backgroundOutline=1;" vertex="1" parent="1">
          <mxGeometry x="399" y="80" width="30" height="30" as="geometry" />
        </mxCell>
        <mxCell id="AfXP875CaXnzclMjdYe_-24" style="edgeStyle=orthogonalEdgeStyle;orthogonalLoop=1;jettySize=auto;html=1;entryX=1;entryY=0;entryDx=0;entryDy=0;curved=1;startArrow=classic;startFill=1;" edge="1" parent="1" source="AfXP875CaXnzclMjdYe_-12" target="AfXP875CaXnzclMjdYe_-10">
          <mxGeometry relative="1" as="geometry" />
        </mxCell>
        <mxCell id="AfXP875CaXnzclMjdYe_-12" value="" style="shape=sumEllipse;perimeter=ellipsePerimeter;whiteSpace=wrap;html=1;backgroundOutline=1;" vertex="1" parent="1">
          <mxGeometry x="520" y="80" width="30" height="30" as="geometry" />
        </mxCell>
        <mxCell id="AfXP875CaXnzclMjdYe_-21" style="edgeStyle=orthogonalEdgeStyle;orthogonalLoop=1;jettySize=auto;html=1;startArrow=classic;startFill=1;curved=1;" edge="1" parent="1" source="AfXP875CaXnzclMjdYe_-11">
          <mxGeometry relative="1" as="geometry">
            <mxPoint x="520" y="94" as="targetPoint" />
          </mxGeometry>
        </mxCell>
        <mxCell id="AfXP875CaXnzclMjdYe_-30" style="edgeStyle=orthogonalEdgeStyle;rounded=0;orthogonalLoop=1;jettySize=auto;html=1;entryX=0;entryY=0.5;entryDx=0;entryDy=0;" edge="1" parent="1" source="AfXP875CaXnzclMjdYe_-29" target="AfXP875CaXnzclMjdYe_-2">
          <mxGeometry relative="1" as="geometry" />
        </mxCell>
        <mxCell id="AfXP875CaXnzclMjdYe_-29" value="主机" style="rounded=0;whiteSpace=wrap;html=1;fillColor=#dae8fc;strokeColor=#6c8ebf;" vertex="1" parent="1">
          <mxGeometry x="-30" y="82.5" width="80" height="125" as="geometry" />
        </mxCell>
        <mxCell id="AfXP875CaXnzclMjdYe_-32" style="edgeStyle=orthogonalEdgeStyle;rounded=0;orthogonalLoop=1;jettySize=auto;html=1;entryX=1;entryY=0.5;entryDx=0;entryDy=0;" edge="1" parent="1" source="AfXP875CaXnzclMjdYe_-31" target="AfXP875CaXnzclMjdYe_-6">
          <mxGeometry relative="1" as="geometry" />
        </mxCell>
        <mxCell id="AfXP875CaXnzclMjdYe_-31" value="主机" style="rounded=0;whiteSpace=wrap;html=1;fillColor=#dae8fc;strokeColor=#6c8ebf;" vertex="1" parent="1">
          <mxGeometry x="710" y="252.5" width="80" height="125" as="geometry" />
        </mxCell>
        <mxCell id="AfXP875CaXnzclMjdYe_-36" value="" style="rounded=0;whiteSpace=wrap;html=1;fillColor=#f8cecc;strokeColor=#b85450;" vertex="1" parent="1">
          <mxGeometry x="710" y="-60" width="90" height="30" as="geometry" />
        </mxCell>
        <mxCell id="AfXP875CaXnzclMjdYe_-37" value="核心" style="text;html=1;align=center;verticalAlign=middle;resizable=0;points=[];autosize=1;strokeColor=none;fillColor=none;" vertex="1" parent="1">
          <mxGeometry x="650" y="-60" width="50" height="30" as="geometry" />
        </mxCell>
        <mxCell id="AfXP875CaXnzclMjdYe_-38" value="" style="rounded=0;whiteSpace=wrap;html=1;fillColor=#fff2cc;strokeColor=#d6b656;" vertex="1" parent="1">
          <mxGeometry x="710" y="-20" width="90" height="30" as="geometry" />
        </mxCell>
        <mxCell id="AfXP875CaXnzclMjdYe_-39" value="接入" style="text;html=1;align=center;verticalAlign=middle;resizable=0;points=[];autosize=1;strokeColor=none;fillColor=none;" vertex="1" parent="1">
          <mxGeometry x="650" y="-20" width="50" height="30" as="geometry" />
        </mxCell>
        <mxCell id="AfXP875CaXnzclMjdYe_-40" value="" style="rounded=0;whiteSpace=wrap;html=1;fillColor=#dae8fc;strokeColor=#6c8ebf;" vertex="1" parent="1">
          <mxGeometry x="710" y="20" width="90" height="30" as="geometry" />
        </mxCell>
        <mxCell id="AfXP875CaXnzclMjdYe_-41" value="外围" style="text;html=1;align=center;verticalAlign=middle;resizable=0;points=[];autosize=1;strokeColor=none;fillColor=none;" vertex="1" parent="1">
          <mxGeometry x="650" y="20" width="50" height="30" as="geometry" />
        </mxCell>
        <mxCell id="AfXP875CaXnzclMjdYe_-42" value="&lt;b&gt;&lt;font style=&quot;font-size: 25px;&quot;&gt;计算机网络结构&lt;/font&gt;&lt;/b&gt;" style="text;html=1;align=center;verticalAlign=middle;resizable=0;points=[];autosize=1;strokeColor=none;fillColor=none;" vertex="1" parent="1">
          <mxGeometry x="317.5" y="428" width="193" height="42" as="geometry" />
        </mxCell>
      </root>
    </mxGraphModel>
  </diagram>
</mxfile>
